<?xml version="1.0" encoding="UTF-8" standalone="no"?>
<svg
   width="512"
   height="512"
   viewBox="0 0 512 512"
   version="1.1"
   xmlns="http://www.w3.org/2000/svg"
   xmlns:svg="http://www.w3.org/2000/svg">
  <g
     stroke="none"
     stroke-width="1"
     fill="none"
     fill-rule="evenodd">
    <circle
       fill="#343F55"
       cx="256"
       cy="256"
       r="256" />
    <g
       transform="matrix(1.735455,0,0,1.735455,32.709382,67.141792)"
       fill="#ffffff">
      <path
         d="m 221.49863,33.439305 c -0.003,-0.300696 -0.0326,-0.600527 -0.0895,-0.895795 0,-0.08958 -0.0448,-0.170201 -0.0717,-0.259781 -0.0269,-0.08958 -0.11646,-0.403108 -0.18812,-0.600182 l -0.13437,-0.286655 c -0.0834,-0.170977 -0.17925,-0.335642 -0.28665,-0.492687 -0.0627,-0.09854 -0.12541,-0.197076 -0.19708,-0.295613 l -0.12541,-0.170201 c -0.0717,-0.08062 -0.15228,-0.143328 -0.22395,-0.214991 l -0.17915,-0.214991 -0.14334,-0.09854 c -0.13128,-0.112261 -0.26886,-0.21694 -0.41206,-0.313528 l -0.34936,-0.22395 c -0.15399,-0.08072 -0.31251,-0.15251 -0.47478,-0.214991 l -0.37623,-0.152285 c -0.1702,-0.05375 -0.34936,-0.08063 -0.51955,-0.116453 l -0.38519,-0.08063 c -0.21179,-0.0135 -0.42423,-0.0135 -0.63602,0 h -0.35833 c -2.40072,0.214991 -34.12084,3.242779 -69.77349,19.143146 -21.40952,9.522307 -37.98172,24.141687 -48.408783,41.887392 l -2.687386,1.164533 C 57.308313,108.04114 34.501365,141.15869 34.501365,179.59727 v 0.64496 c 0,1.80631 1.049767,3.44805 2.687386,4.21025 0.61561,0.28211 1.284621,0.43004 1.961792,0.43004 H 165.86079 c 0.24624,0 0.4921,-0.0196 0.73455,-0.0627 l 0.32249,-0.0807 c 0.15229,-0.0448 0.30457,-0.0717 0.45685,-0.12542 0.15228,-0.0538 0.22395,-0.10749 0.34041,-0.16124 0.11645,-0.0538 0.26873,-0.10749 0.39414,-0.17915 0.23651,-0.1397 0.46121,-0.29849 0.67185,-0.47478 l 51.06034,-43.05192 c 1.05699,-0.88828 1.66155,-2.20257 1.64826,-3.58318 V 33.439305 Z m -46.16929,132.676245 -4.89999,4.12962 V 78.650094 L 212.20924,43.436381 V 135.03146 Z M 91.912886,141.83053 h 69.227054 v 33.76253 H 51.85292 Z M 150.34562,56.443328 c 16.31764,-7.184692 33.38688,-12.523901 50.89012,-15.918283 l -37.34571,31.487206 c -17.23829,2.103342 -34.19306,6.095704 -50.55868,11.90512 9.24461,-11.287021 21.71407,-20.648082 37.01427,-27.474043 z m -45.8916,40.83035 C 122.64035,89.787623 141.6787,84.567722 161.13994,81.73163 v 50.80951 H 94.95859 c 0.477244,-12.31962 3.722669,-24.37361 9.49543,-35.267462 z m -12.747166,5.930172 c -3.91396,10.15622 -5.994601,20.92642 -6.145157,31.80968 l -41.206584,34.77478 c 3.117368,-28.25338 19.895614,-51.88446 47.351741,-66.58446 z"
         fill="#ffffff"
         style="stroke-width:0.730458" />
    </g>
  </g>
</svg>
